<!-- icon666.com - MILLIONS OF FREE VECTOR ICONS --><svg id="Layer_1" enable-background="new 0 0 511 511" viewBox="0 0 511 511" xmlns="http://www.w3.org/2000/svg"><g><g><g><path d="m255.5 21.447c-94.196 0-152.253 53.158-152.413 53.247-3.635 16.78-9.922 41.103-9.922 58.972 0 135.186 114.002 244.749 249.188 244.749 57.611 0 110.542-26.824 152.355-60.128.17-1.043 5.568-22.535 5.568-52.064 0-135.186-109.59-244.776-244.776-244.776z" fill="#afe6ff"></path></g><g><path d="m342.332 371.505c-135.186 0-244.776-109.59-244.776-244.776 0-17.869 1.932-35.284 5.568-52.064-.006.005-.011.009-.017.014-56.294 44.847-92.383 113.977-92.383 191.545 0 47.503 13.532 91.845 36.95 129.383l404.312 16.625c20.375-27.369 35.198-59.213 42.723-93.944-41.813 33.304-94.766 53.217-152.377 53.217z" fill="#73c8f0"></path></g></g><g><path d="m255.203 58.519s-19.415-18.915-19.415-29.26 19.415-29.259 19.415-29.259 29.26 18.915 29.26 29.26-29.26 29.259-29.26 29.259z" fill="#ff3c3c"></path></g><g><path d="m248.945 29.26c0-5.915 9.566-14.632 17.759-21.013-6.135-4.779-11.501-8.247-11.501-8.247s-29.26 18.915-29.26 29.26 29.26 29.26 29.26 29.26 5.365-3.468 11.501-8.247c-8.193-6.381-17.759-15.098-17.759-21.013z" fill="#dc1428"></path></g><g><path d="m218.07 290.15h76.375v56.147h-76.375z" fill="#6c9baa"></path></g><g><path d="m285.786 32.703h-31.448c-10.257 0-18.572 8.315-18.572 18.572v21.061h50.02c10.944 0 19.816-8.872 19.816-19.817 0-10.944-8.872-19.816-19.816-19.816z" fill="#ffc305"></path></g><g><path d="m236.193 52.519c0-10.944 8.872-19.816 19.816-19.816h-31.002c-10.944 0-19.816 8.872-19.816 19.816 0 10.944 8.872 19.816 19.816 19.816h31.002c-10.944.001-19.816-8.872-19.816-19.816z" fill="#ffa50a"></path></g><g><path d="m300.388 58.52h-37.026c-19.254 0-34.862 15.608-34.862 34.862v42.089l34.691-.493 62.865.853 10.866 59.108v-99.885c.001-20.177-16.357-36.534-36.534-36.534z" fill="#ff3c3c"></path></g><g><g><path d="m228.873 95.054c0-20.178 16.357-36.535 36.535-36.535h-55.003c-20.178 0-36.535 16.357-36.535 36.535v58.879.002 41.004l10.866-58.846 44.137-.627z" fill="#dc1428"></path></g></g><g><path d="m145.769 283.674c19.659 9.365 87.105 0 87.105 0l-46.003-153.818s-93.682-17.044-107.846 6.559c-22.424 37.366 30.253 129.875 66.744 147.259z" fill="#55879b"></path></g><g><path d="m173.101 259.26c13.491 6.427 59.772 0 59.772 0l-40.489-105.552s-55.364-11.696-65.084 4.501c-15.387 25.641 20.761 89.122 45.801 101.051z" fill="#6c9baa"></path></g><g><path d="m364.766 283.674c-19.659 9.365-87.105 0-87.105 0l46.003-153.818s93.682-17.044 107.846 6.559c22.424 37.366-30.253 129.875-66.744 147.259z" fill="#55879b"></path></g><g><path d="m337.433 259.26c-13.491 6.427-59.772 0-59.772 0l40.489-105.552s55.364-11.696 65.084 4.501c15.387 25.641-20.76 89.122-45.801 101.051z" fill="#6c9baa"></path></g><g><path d="m328.66 286.118h-59.29c-40.691 0-73.677 32.987-73.677 73.677v143.836c19.141 4.807 39.174 7.369 59.807 7.369 56.634 0 109.121-19.341 150.852-52.017v-95.173c0-42.908-34.784-77.692-77.692-77.692z" fill="#87afb9"></path></g><g><path d="m386.732 312.198-262.285-4.523c-14.778 14.143-23.98 34.064-23.98 56.135v91.844c27.807 22.784 60.721 39.567 96.764 48.368 0-30.126 24.926-53.999 55.044-53.306 1.235.028 2.474.043 3.715.043 68.143 0 126.239-43.012 148.624-103.367-2.866-13.321-9.147-25.373-17.882-35.194z" fill="#6c9baa"></path></g><g><path d="m351.935 289.664-152.5-.919.705 126.992c16.917 7.892 35.784 12.306 55.683 12.306 67.406 0 122.999-50.573 130.908-115.845-9.234-10.383-21.212-18.273-34.796-22.534z" fill="#97d729"></path></g><g><path d="m164.121 287.383c-13.983 2.55-28.76 9.838-39.674 20.292 4.147 47.98 33.986 88.612 75.691 108.068v-51.933c0-42.908 34.784-77.692 77.692-77.692-97.366.693-100.002-1.245-113.709 1.265z" fill="#64bc0f"></path></g><g><path d="m328.66 286.118h-71.906c-31.656 0-57.319 25.662-57.319 57.319l2.444 3.972c15.543 10.052 34.057 15.901 53.944 15.901 46.01 0 84.726-31.227 96.111-73.644-7.347-2.306-15.166-3.548-23.274-3.548z" fill="#827ddc"></path></g><g><path d="m159.383 288.402c6.263 24.629 21.713 45.591 42.486 59.022 7.522-35.039 38.674-61.306 75.96-61.306-94.286.673-102.638-1.644-118.446 2.284z" fill="#6e64c3"></path></g><g><g><g><path d="m333.315 153.504c0-26.077-16.729-49.923-42.806-49.923h-61.341c-.061 0-.122 0-.184 0-13.67.057-24.704 11.211-24.704 24.881v121.521c0 28.253 22.681 51.491 50.933 51.689.195.001.39.002.585.002 44.804 0 81.125-36.321 81.125-81.125v-25.611z" fill="#87afb9"></path></g></g></g><g><path d="m205.191 220.828v-24.809l2.706-41.434c0-26.077 19.285-50.877 45.362-50.877l-32.172-.126c-26.077 0-44.511 23.846-44.511 49.923l-2.706 41.434v24.809c0 45.248 36.68 81.928 81.928 81.928 4.383 0 8.678-.344 12.862-1.007-36.359-8.374-63.469-40.941-63.469-79.841z" fill="#6c9baa"></path></g><g><g><g><path d="m227.503 202.712c-3.731 0-6.757-3.025-6.757-6.757v-18.479c0-3.731 3.025-6.757 6.757-6.757 3.731 0 6.757 3.025 6.757 6.757v18.479c0 3.732-3.026 6.757-6.757 6.757z" fill="#6c9baa"></path></g></g></g><g><g><g><path d="m282.683 202.712c-3.731 0-6.757-3.025-6.757-6.757v-18.479c0-3.731 3.025-6.757 6.757-6.757 3.731 0 6.757 3.025 6.757 6.757v18.479c0 3.732-3.025 6.757-6.757 6.757z" fill="#6c9baa"></path></g></g></g><g><g><g><path d="m227.503 197.3c-3.731 0-6.757-3.025-6.757-6.757v-18.479c0-3.731 3.025-6.757 6.757-6.757 3.731 0 6.757 3.025 6.757 6.757v18.479c0 3.732-3.026 6.757-6.757 6.757z" fill="#373c41"></path></g></g></g><g><g><g><path d="m282.683 197.3c-3.731 0-6.757-3.025-6.757-6.757v-18.479c0-3.731 3.025-6.757 6.757-6.757 3.731 0 6.757 3.025 6.757 6.757v18.479c0 3.732-3.025 6.757-6.757 6.757z" fill="#373c41"></path></g></g></g><g><g><g><g><path d="m236.405 161.929h-19.705c-3.732 0-6.757-3.025-6.757-6.757 0-3.732 3.025-6.757 6.757-6.757h19.704c3.732 0 6.757 3.025 6.757 6.757 0 3.732-3.025 6.757-6.756 6.757z" fill="#55879b"></path></g></g></g></g><g><g><g><g><path d="m292.711 161.929h-19.704c-3.732 0-6.757-3.025-6.757-6.757 0-3.732 3.025-6.757 6.757-6.757h19.704c3.732 0 6.757 3.025 6.757 6.757 0 3.732-3.025 6.757-6.757 6.757z" fill="#55879b"></path></g></g></g></g><g><path d="m223.237 184.343c-1.376 0-2.491-1.115-2.491-2.491v-7.543c0-1.376 1.115-2.491 2.491-2.491 1.376 0 2.491 1.115 2.491 2.491v7.543c0 1.376-1.115 2.491-2.491 2.491z" fill="#fff"></path></g><g><path d="m278.291 184.343c-1.376 0-2.491-1.115-2.491-2.491v-7.543c0-1.376 1.115-2.491 2.491-2.491 1.376 0 2.491 1.115 2.491 2.491v7.543c0 1.376-1.116 2.491-2.491 2.491z" fill="#fff"></path></g><g><path d="m255.396 65.353-25.548 25.548-.68 12.681 26.228 26.228 32.229-32.229z" fill="#ff3c3c"></path></g><g><path d="m304.701 272.474c-14.592 0-26.422-11.829-26.422-26.422 0-.314.006-.626.017-.937-5.968 5.101-9.637 12.815-9.234 21.37.623 13.228 11.238 24.13 24.448 25.075 14.105 1.009 26.068-9.061 28.071-22.393.167-1.113-1.072-1.912-2.002-1.278-4.238 2.894-9.36 4.585-14.878 4.585z" fill="#fff"></path></g><g><path d="m205.921 272.474c14.592 0 26.422-11.829 26.422-26.422 0-.314-.006-.626-.017-.937 5.968 5.101 9.637 12.815 9.234 21.37-.623 13.228-11.238 24.13-24.448 25.075-14.105 1.009-26.068-9.061-28.071-22.393-.167-1.113 1.072-1.912 2.002-1.278 4.238 2.894 9.361 4.585 14.878 4.585z" fill="#fff"></path></g><g><path d="m338.851 360.549-40.847-35.03c-8.653-7.421-13.632-18.251-13.632-29.65v-72.765h-57.15v74.256c0 29.45 18.301 55.799 45.897 66.082l31.866 11.874c18.753 6.988 33.615 21.672 40.829 40.339l15.853-19.817-3.766-9.054c-4.208-10.116-10.733-19.103-19.05-26.235z" fill="#87afb9"></path></g><g><path d="m255.396 111.869-14.287-14.288 14.287-14.287 10.012 14.287z" fill="#ffc305"></path></g><g><path d="m255.396 111.869v-28.575l14.288 14.287z" fill="#ffe65a"></path></g><g><path d="m243.161 227.919 14.21-24.21 14.209 24.21-14.209 24.21z" fill="#fff"></path></g><g><path d="m268.915 279.117h-23.088c-2.761 0-5-2.239-5-5s2.239-5 5-5h23.088c2.761 0 5 2.239 5 5s-2.239 5-5 5z" fill="#6c9baa"></path></g><g><path d="m245.82 301.837c-2.5 0-4.66-1.872-4.959-4.416-.323-2.742 1.639-5.228 4.381-5.55l23.088-2.718c2.734-.326 5.227 1.638 5.55 4.381.323 2.742-1.639 5.227-4.381 5.55l-23.088 2.718c-.198.024-.395.035-.591.035z" fill="#6c9baa"></path></g><g><path d="m249.925 324.38c-2.239 0-4.277-1.515-4.846-3.786-.671-2.679.956-5.394 3.635-6.065l20.986-5.259c2.678-.67 5.394.956 6.065 3.635s-.956 5.394-3.635 6.065l-20.986 5.259c-.408.102-.817.151-1.219.151z" fill="#6c9baa"></path></g><g><circle cx="255.735" cy="142.187" fill="#ffc305" r="9.908"></circle></g><g><g><path d="m68.207 368.055v55.752c11.378 13.509 24.181 25.779 38.194 36.557 26.364-2.948 46.86-25.312 46.86-52.463v-39.846z" fill="#87afb9"></path></g><g><g><path d="m68.675 407.901v-39.846h-21.001v27.552c7.589 12.165 16.217 23.615 25.759 34.226-3.055-6.68-4.758-14.107-4.758-21.932z" fill="#6c9baa"></path></g></g><g><path d="m110.827 316.143v81.132h21.197v-81.132c0-5.853-4.745-10.599-10.599-10.599-5.852.001-10.598 4.746-10.598 10.599z" fill="#87afb9"></path></g><g><path d="m132.025 362.009v42.43l21.197-8.256v-34.174c0-5.853-4.745-10.599-10.599-10.599-5.853 0-10.598 4.745-10.598 10.599z" fill="#87afb9"></path></g><g><path d="m89.776 296.448v100.741h21.197v-100.741c0-5.853-4.745-10.599-10.599-10.599-5.853.001-10.598 4.746-10.598 10.599z" fill="#87afb9"></path></g><g><path d="m68.725 311.272v81.132h21.197v-81.132c0-5.853-4.745-10.599-10.599-10.599-5.853.001-10.598 4.746-10.598 10.599z" fill="#87afb9"></path></g><g><path d="m47.674 325.955v68.747h21.197v-68.747c0-5.853-4.745-10.599-10.599-10.599-5.853.001-10.598 4.746-10.598 10.599z" fill="#6c9baa"></path></g><path d="m74.618 301.786c-3.489 1.735-5.893 5.325-5.893 9.486v51.619c3.779 0 6.842-3.063 6.842-6.842v-54.263z" fill="#6c9baa"></path><g><path d="m96.618 286.548v69.502c0 3.779-3.063 6.842-6.842 6.842v-66.443c0-4.529 2.846-8.384 6.842-9.901z" fill="#6c9baa"></path></g><g><path d="m111.085 362.891v-49.047c.796-3.595 3.417-6.496 6.842-7.695v49.901c0 3.778-3.064 6.841-6.842 6.841z" fill="#6c9baa"></path></g><g><path d="m138.867 352.108v39.67c0 3.779-3.063 6.842-6.842 6.842v-36.612c0-4.528 2.845-8.383 6.842-9.9z" fill="#6c9baa"></path></g></g><g><g><circle cx="375.735" cy="396.997" fill="#ffa50a" r="24.973"></circle></g><g><circle cx="356.594" cy="427.622" fill="#fa870a" r="24.973"></circle></g><g><circle cx="394.727" cy="427.622" fill="#ffa50a" r="24.973"></circle></g><g><circle cx="396.238" cy="371.269" fill="#ffd23c" r="24.973"></circle></g><g><circle cx="413.867" cy="396.997" fill="#ffc305" r="24.973"></circle></g><g><path d="m432.86 402.649c-13.792 0-24.973 11.181-24.973 24.973 0 8.658 4.406 16.287 11.099 20.767 12.259-11.001 23.412-23.23 33.261-36.509-4.579-5.632-11.563-9.231-19.387-9.231z" fill="#ffc305"></path></g><g><path d="m436.667 430.828h-62.964c-5.09 13.467-10.332 36.574-4.603 52.237 25.46-13.361 48.328-31.088 67.567-52.237z" fill="#ff3c3c"></path></g><g><path d="m326.084 430.828c0 24.285 12.597 45.627 31.613 57.849 10.377-4.775 20.372-10.258 29.919-16.387-8.732-11.524-13.914-25.887-13.914-41.461h-47.618z" fill="#dc1428"></path></g></g><g><path d="m283.785 474.308c0-23.54-12.149-42.624-27.135-42.624s-27.135 19.083-27.135 42.624c0 15.379 5.185 28.855 12.959 36.351 4.313.226 8.656.341 13.025.341 5.195 0 10.355-.164 15.475-.484 7.692-7.524 12.811-20.927 12.811-36.208z" fill="#6c9baa"></path></g><g><path d="m279.452 481.469c2.738-6.656 4.333-14.58 4.333-23.093 0-23.54-12.149-42.624-27.135-42.624-4.875 0-9.445 2.029-13.398 5.564v60.153z" fill="#ffd23c"></path></g><g><path d="m271.054 480.382c-14.986 0-27.135-19.083-27.135-42.624 0-6.869 1.035-13.358 2.872-19.105-10.111 6.197-17.275 21.645-17.275 39.722 0 23.541 12.149 42.624 27.135 42.624 10.613 0 19.803-9.572 24.263-23.519-3.057 1.874-6.382 2.902-9.86 2.902z" fill="#ffc305"></path></g></g></svg>