<!-- icon666.com - MILLIONS OF FREE VECTOR ICONS --><svg id="Capa_1" enable-background="new 0 0 512 512" viewBox="0 0 512 512" xmlns="http://www.w3.org/2000/svg"><g><g><g><g><g><g id="XMLID_2232_"><g id="XMLID_2233_"><g id="XMLID_2234_"><g id="XMLID_2235_"><g id="XMLID_2236_"><g id="XMLID_2237_"><g id="XMLID_2238_"><g id="XMLID_2239_"><g id="XMLID_2240_"><g id="XMLID_2241_"><g id="XMLID_2242_"><g id="XMLID_2243_"><g id="XMLID_2244_"><g id="XMLID_2245_"><g id="XMLID_2246_"><circle cx="256" cy="256" fill="#ff8f29" r="256"></circle></g></g></g></g></g></g></g></g></g></g></g></g></g></g></g></g></g></g></g><path d="m511.961 251.516-132.307-132.308-21.71 67.011-5.639 3.109-96.305-96.305-7.842 141.997-115.812-115.812-69.532 159.941 29.585 29.585-35.485 46.845 152.123 152.123c15.224 2.822 30.921 4.298 46.963 4.298 141.385 0 256-114.615 256-256 0-1.498-.013-2.993-.039-4.484z" fill="#f45f0c"></path><g><g><path d="m192.684 189.659c-22.94-20.198-60.338-70.45-60.338-70.45s-37.398 50.252-60.338 70.45c-21.463 18.898-39.094 57.552-12.924 85.947 21.001 22.786 73.262 22.649 73.262 22.649s52.261.137 73.262-22.649c26.17-28.395 8.539-67.049-12.924-85.947z" fill="#eaeaea"></path><path d="m439.992 189.659c-22.94-20.198-60.338-70.45-60.338-70.45s-37.398 50.252-60.338 70.45c-21.463 18.898-39.095 57.552-12.924 85.947 21.001 22.786 73.262 22.649 73.262 22.649s52.261.137 73.262-22.649c26.17-28.395 8.539-67.049-12.924-85.947z" fill="#d6d6d6"></path></g><path d="m314.75 181c-28.013-24.665-58.75-87.977-58.75-87.977s-45.669 54.736-73.682 79.401c-26.21 23.077-47.74 70.28-15.782 104.955 25.645 27.826 89.464 27.659 89.464 27.659s63.819.167 89.464-27.658c31.959-34.676-4.504-73.303-30.714-96.38z" fill="#fff"></path><g><path d="m329.682 172.425c-28.013-24.665-73.682-79.402-73.682-79.402v212.014s63.819.167 89.464-27.658c31.959-34.675 10.428-81.877-15.782-104.954z" fill="#eaeaea"></path></g><path d="m396.989 377.993h-281.978c-47.774 0-86.503-38.729-86.503-86.503v-3.612h454.983v3.612c0 47.774-38.728 86.503-86.502 86.503z" fill="#56bf58"></path><g><g><g><path d="m256 287.878v90.115h140.989c47.774 0 86.502-38.729 86.502-86.503v-3.612z" fill="#2c894d"></path></g></g></g></g><path d="m283.748 169.008 25.107 27.128c8.279 8.946 8.788 22.596 1.198 32.134-3.922 4.929-10.54 6.825-16.478 4.721-5.891-2.088-9.828-7.66-9.828-13.91v-50.073z" fill="#d6d6d6"></path><path d="m228.252 169.008-25.106 27.128c-8.279 8.946-8.788 22.596-1.199 32.134 3.922 4.929 10.54 6.825 16.477 4.721 5.891-2.088 9.827-7.66 9.827-13.91v-50.073z" fill="#eaeaea"></path></g></svg>